<?xml version="1.0" encoding="UTF-8"?>
<svg width="24px" height="24px" viewBox="0 0 24 24" version="1.1" xmlns="http://www.w3.org/2000/svg" xmlns:xlink="http://www.w3.org/1999/xlink">
    <!-- Generator: Sketch 53.1 (72631) - https://sketchapp.com -->
    <title>Group 274</title>
    <desc>Created with Sketch.</desc>
    <g id="Sketch" stroke="none" stroke-width="1" fill="none" fill-rule="evenodd">
        <g id="24_Px_Grid_set_3.ai" transform="translate(-771.000000, -149.000000)" fill="#000000">
            <g id="Group-274" transform="translate(771.000000, 149.730000)">
                <path d="M2.5,11 C1.673,11 1,11.673 1,12.5 L1,20.5 C1,21.327 1.673,22 2.5,22 L5.5,22 C6.327,22 7,21.327 7,20.5 C7,20.298 7.122,20.116 7.309,20.038 C7.495,19.96 7.711,20.004 7.854,20.146 C8.327,20.619 9.688,21 10.5,21 L19.679,21 C20.303,21 20.845,20.595 20.968,20.038 C21.066,19.59 20.935,19.155 20.604,18.843 C20.464,18.71 20.412,18.506 20.474,18.322 C20.535,18.137 20.698,18.005 20.892,17.983 C21.523,17.911 22,17.381 22,16.75 C22,16.406 21.859,16.084 21.604,15.843 C21.464,15.71 21.412,15.506 21.474,15.322 C21.535,15.137 21.698,15.005 21.892,14.983 C22.523,14.911 23,14.381 23,13.75 C23,13.284 22.738,12.86 22.315,12.644 C22.155,12.561 22.052,12.398 22.044,12.218 C22.037,12.038 22.128,11.868 22.282,11.773 C22.773,11.471 23.046,10.928 22.993,10.357 C22.923,9.597 22.215,9 21.381,9 L14.5,9 C14.336,9 14.182,8.919 14.088,8.784 C13.995,8.648 13.975,8.476 14.033,8.322 C14.042,8.297 15,5.759 15,4 C15,2.363 13.548,1 13,1 C12.569,1 12.208,1.157 12,1.272 L12,4.5 C12,4.572 11.984,4.644 11.954,4.709 L8.954,11.209 C8.906,11.312 8.825,11.396 8.724,11.447 L7.724,11.947 C7.568,12.024 7.383,12.016 7.237,11.925 C7.09,11.834 7,11.673 7,11.5 L7,11 L2.5,11 Z M5.5,23 L2.5,23 C1.121,23 0,21.878 0,20.5 L0,12.5 C0,11.122 1.121,10 2.5,10 L7.5,10 C7.776,10 8,10.224 8,10.5 L8,10.691 L8.119,10.631 L11,4.39 L11,1 C11,0.848 11.069,0.705 11.187,0.609 C11.219,0.584 11.962,0 13,0 C14.157,0 16,1.831 16,4 C16,5.368 15.51,7.071 15.204,8 L21.381,8 C22.727,8 23.872,8.996 23.989,10.266 C24.055,10.979 23.816,11.665 23.35,12.175 C23.761,12.589 24,13.149 24,13.75 C24,14.617 23.504,15.378 22.765,15.75 C22.919,16.057 23,16.397 23,16.75 C23,17.618 22.503,18.379 21.764,18.751 C21.992,19.207 22.06,19.732 21.944,20.253 C21.721,21.266 20.768,22 19.679,22 L10.5,22 C9.806,22 8.685,21.775 7.853,21.346 C7.505,22.31 6.582,23 5.5,23 L5.5,23 Z" id="Fill-270"></path>
                <path d="M7.5,21 C7.224,21 7,20.776 7,20.5 L7,11.5 C7,11.224 7.224,11 7.5,11 C7.776,11 8,11.224 8,11.5 L8,20.5 C8,20.776 7.776,21 7.5,21" id="Fill-272"></path>
            </g>
        </g>
    </g>
</svg>